name rise44.9368peak50.754fall52.0217.mot
datacolumns 19
datarows 23
range 3.12499300000000 3.16165500000000
endheader
time	ground_force1_vx	ground_force1_vy	ground_force1_vz	ground_force1_px	ground_force1_py	ground_force1_pz	ground_force2_vx	ground_force2_vy	ground_force2_vz	ground_force2_px	ground_force2_py	ground_force2_pz	ground_torque1_x	ground_torque1_y	ground_torque1_z	ground_torque2_x	ground_torque2_y	ground_torque2_z	
3.12499300000000	-9.24589300000000	46.17174700000000	-10.66516000000000	0.39498200000000	0.00000000000000	0.08275300000000	-57.40216100000000	808.98901999999998	-62.24574400000000	0.16299600000000	0.00000000000000	-0.11615500000000	0.00000000000000	-8.37915300000000	0.00000000000000	0.00000000000000	-31.33694700000000	0.00000000000000	
3.12665600000000	-10.06374900000000	52.81220300000000	-11.74383200000000	0.39555400000000	0.00000000000000	0.08393800000000	-57.69997000000000	806.55547799999999	-61.90026400000000	0.16216300000000	0.00000000000000	-0.11610600000000	0.00000000000000	-9.23857000000000	0.00000000000000	0.00000000000000	-31.17879700000000	0.00000000000000	
3.12832200000000	-10.73646800000000	59.39689000000000	-12.69089600000000	0.39626300000000	0.00000000000000	0.08501700000000	-57.99189900000000	803.98126800000000	-61.53182100000000	0.16133700000000	0.00000000000000	-0.11605500000000	0.00000000000000	-10.00246900000000	0.00000000000000	0.00000000000000	-31.01539500000000	0.00000000000000	
3.12998800000000	-11.24903300000000	65.86046800000000	-13.48967000000000	0.39709100000000	0.00000000000000	0.08600400000000	-58.27824400000000	801.26620100000002	-61.14052000000000	0.16051700000000	0.00000000000000	-0.11599900000000	0.00000000000000	-10.65856500000000	0.00000000000000	0.00000000000000	-30.84695800000000	0.00000000000000	
3.13165900000000	-11.59452600000000	72.16274900000001	-14.13199400000000	0.39801900000000	0.00000000000000	0.08691300000000	-58.55931000000000	798.41018799999995	-60.72650600000000	0.15970500000000	0.00000000000000	-0.11594100000000	0.00000000000000	-11.20096000000000	0.00000000000000	0.00000000000000	-30.67370700000000	0.00000000000000	
3.13334100000000	-11.77350100000000	78.28816999999999	-14.61763700000000	0.39903400000000	0.00000000000000	0.08775100000000	-58.83540600000000	795.41323299999999	-60.28995900000000	0.15890000000000	0.00000000000000	-0.11587800000000	0.00000000000000	-11.62970800000000	0.00000000000000	0.00000000000000	-30.49587000000000	0.00000000000000	
3.13499400000000	-11.79285100000000	84.24332800000001	-14.95314900000000	0.40012400000000	0.00000000000000	0.08852800000000	-59.10684300000000	792.27543500000002	-59.83109600000000	0.15810400000000	0.00000000000000	-0.11581200000000	0.00000000000000	-11.94995500000000	0.00000000000000	0.00000000000000	-30.31368400000000	0.00000000000000	
3.13665900000000	-11.66435400000000	90.05311000000000	-15.15035800000000	0.40127700000000	0.00000000000000	0.08925100000000	-59.37393300000000	788.99697800000001	-59.35017000000000	0.15731800000000	0.00000000000000	-0.11574200000000	0.00000000000000	-12.17082100000000	0.00000000000000	0.00000000000000	-30.12738700000000	0.00000000000000	
3.13832400000000	-11.40307600000000	95.75599699999999	-15.22469300000000	0.40248400000000	0.00000000000000	0.08992500000000	-59.63698600000000	785.57813299999998	-58.84747000000000	0.15654000000000	0.00000000000000	-0.11566800000000	0.00000000000000	-12.30413900000000	0.00000000000000	0.00000000000000	-29.93722500000000	0.00000000000000	
3.13999100000000	-11.02578700000000	101.39906000000001	-15.19351100000000	0.40373700000000	0.00000000000000	0.09055600000000	-59.89630500000000	782.01925100000005	-58.32331900000000	0.15577300000000	0.00000000000000	-0.11559000000000	0.00000000000000	-12.36318900000000	0.00000000000000	0.00000000000000	-29.74344400000000	0.00000000000000	
3.14166100000000	-10.54951400000000	107.03311700000000	-15.07454900000000	0.40502800000000	0.00000000000000	0.09114900000000	-60.15218400000000	778.32075899999995	-57.77807500000000	0.15501600000000	0.00000000000000	-0.11550800000000	0.00000000000000	-12.36153000000000	0.00000000000000	0.00000000000000	-29.54629300000000	0.00000000000000	
3.14332200000000	-9.99032500000000	112.70840200000001	-14.88461800000000	0.40635100000000	0.00000000000000	0.09170600000000	-60.40490500000000	774.48316000000000	-57.21213000000000	0.15427100000000	0.00000000000000	-0.11542200000000	0.00000000000000	-12.31199800000000	0.00000000000000	0.00000000000000	-29.34602200000000	0.00000000000000	
3.14498800000000	-9.36240000000000	118.47101000000001	-14.63858700000000	0.40769900000000	0.00000000000000	0.09223100000000	-60.65473500000000	770.50702500000000	-56.62590700000000	0.15353700000000	0.00000000000000	-0.11533100000000	0.00000000000000	-12.22593300000000	0.00000000000000	0.00000000000000	-29.14287900000000	0.00000000000000	
3.14665400000000	-8.67741300000000	124.36023900000001	-14.34869900000000	0.40906800000000	0.00000000000000	0.09272800000000	-60.90191900000000	766.39299000000005	-56.01986200000000	0.15281500000000	0.00000000000000	-0.11523600000000	0.00000000000000	-12.11264600000000	0.00000000000000	0.00000000000000	-28.93711200000000	0.00000000000000	
3.14832200000000	-7.94421300000000	130.40689000000000	-14.02419800000000	0.41045200000000	0.00000000000000	0.09319800000000	-61.14668100000000	762.14175599999999	-55.39448100000000	0.15210500000000	0.00000000000000	-0.11513700000000	0.00000000000000	-11.97912200000000	0.00000000000000	0.00000000000000	-28.72896500000000	0.00000000000000	
3.15000900000000	-7.16877300000000	136.63246699999999	-13.67125100000000	0.41184700000000	0.00000000000000	0.09364400000000	-61.38921800000000	757.75407800000005	-54.75028100000000	0.15140800000000	0.00000000000000	-0.11503300000000	0.00000000000000	-11.82995600000000	0.00000000000000	0.00000000000000	-28.51867700000000	0.00000000000000	
3.15166300000000	-6.35437600000000	143.04918799999999	-13.29311600000000	0.41324900000000	0.00000000000000	0.09406700000000	-61.62969700000000	753.23077100000000	-54.08780500000000	0.15072500000000	0.00000000000000	-0.11492500000000	0.00000000000000	-11.66747200000000	0.00000000000000	0.00000000000000	-28.30648300000000	0.00000000000000	
3.15332800000000	-5.50196300000000	149.66064100000000	-12.89049100000000	0.41465400000000	0.00000000000000	0.09447000000000	-61.86824900000000	748.57269599999995	-53.40762500000000	0.15005500000000	0.00000000000000	-0.11481200000000	0.00000000000000	-11.49198300000000	0.00000000000000	0.00000000000000	-28.09260900000000	0.00000000000000	
3.15499700000000	-4.61059900000000	156.46293600000001	-12.46199900000000	0.41605900000000	0.00000000000000	0.09485500000000	-62.10497000000000	743.78076399999998	-52.71033800000000	0.14940000000000	0.00000000000000	-0.11469400000000	0.00000000000000	-11.30216200000000	0.00000000000000	0.00000000000000	-27.87727400000000	0.00000000000000	
3.15666300000000	-3.67800000000000	163.44615300000001	-12.00473000000000	0.41745900000000	0.00000000000000	0.09522100000000	-62.33991200000000	738.85592799999995	-51.99656600000000	0.14875800000000	0.00000000000000	-0.11457200000000	0.00000000000000	-11.09546300000000	0.00000000000000	0.00000000000000	-27.66068800000000	0.00000000000000	
3.15833000000000	-2.70106200000000	170.59594500000000	-11.51480600000000	0.41885300000000	0.00000000000000	0.09557100000000	-62.57308300000000	733.79918099999998	-51.26695400000000	0.14813100000000	0.00000000000000	-0.11444500000000	0.00000000000000	-10.86855300000000	0.00000000000000	0.00000000000000	-27.44304700000000	0.00000000000000	
3.15999300000000	-1.67636400000000	177.89513299999999	-10.98791400000000	0.42023700000000	0.00000000000000	0.09590600000000	-62.80444400000000	728.61155399999996	-50.52216700000000	0.14751900000000	0.00000000000000	-0.11431400000000	0.00000000000000	-10.61773200000000	0.00000000000000	0.00000000000000	-27.22453900000000	0.00000000000000	
3.16165500000000	-0.60060000000000	185.32517799999999	-10.41977600000000	0.42160900000000	0.00000000000000	0.09622600000000	-63.03390400000000	723.29410800000005	-49.76289300000000	0.14692300000000	0.00000000000000	-0.11417700000000	0.00000000000000	-10.33930000000000	0.00000000000000	0.00000000000000	-27.00533600000000	0.00000000000000	
